<?xml version="1.0" encoding="UTF-8" standalone="no"?>
<!DOCTYPE svg PUBLIC "-//W3C//DTD SVG 1.1//EN"
 "http://www.w3.org/Graphics/SVG/1.1/DTD/svg11.dtd">
<!-- Generated by graphviz version 2.43.0 (0)
 -->
<!-- Title: %3 Pages: 1 -->
<svg width="622pt" height="246pt"
 viewBox="0.00 0.00 622.00 246.00" xmlns="http://www.w3.org/2000/svg" xmlns:xlink="http://www.w3.org/1999/xlink">
<g id="graph0" class="graph" transform="scale(1 1) rotate(0) translate(4 242)">
<title>%3</title>
<polygon fill="white" stroke="transparent" points="-4,4 -4,-242 618,-242 618,4 -4,4"/>
<g id="clust1" class="cluster">
<title>cluster&#45;scatter&#45;L34C2&#45;sample</title>
<polygon fill="none" stroke="black" points="8,-8 8,-122 289,-122 289,-8 8,-8"/>
<text text-anchor="middle" x="148.5" y="-106.8" font-family="Times,serif" font-size="14.00">scatter(cohort.samples)</text>
</g>
<g id="clust2" class="cluster">
<title>cluster&#45;if&#45;L35C3</title>
<polygon fill="none" stroke="black" points="26,-16 26,-91 281,-91 281,-16 26,-16"/>
<text text-anchor="middle" x="153.5" y="-75.8" font-family="Times,serif" font-size="14.00">if(sample.run_de_novo_assembly)</text>
</g>
<g id="clust3" class="cluster">
<title>cluster&#45;if&#45;L47C2</title>
<polygon fill="none" stroke="black" points="298,-8 298,-122 606,-122 606,-8 298,-8"/>
<text text-anchor="middle" x="452" y="-106.8" font-family="Times,serif" font-size="14.00">if(length(cohort.samples) &gt; 1)</text>
</g>
<g id="clust4" class="cluster">
<title>cluster&#45;if&#45;L48C3</title>
<polygon fill="none" stroke="black" points="316,-16 316,-91 598,-91 598,-16 316,-16"/>
<text text-anchor="middle" x="457" y="-75.8" font-family="Times,serif" font-size="14.00">if(cohort.run_de_novo_assembly_trio)</text>
</g>
<!-- call&#45;backend_configuration -->
<g id="node1" class="node">
<title>call&#45;backend_configuration</title>
<polygon fill="none" stroke="black" points="378.5,-232 213.5,-232 213.5,-208 378.5,-208 390.5,-220 378.5,-232"/>
<text text-anchor="middle" x="302" y="-216.3" font-family="Times,serif" font-size="14.00">backend_configuration</text>
</g>
<!-- decl&#45;default_runtime_attributes -->
<g id="node2" class="node">
<title>decl&#45;default_runtime_attributes</title>
<text text-anchor="middle" x="302" y="-144.3" font-family="Times,serif" font-size="14.00">default_runtime_attributes</text>
</g>
<!-- call&#45;backend_configuration&#45;&gt;decl&#45;default_runtime_attributes -->
<g id="edge1" class="edge">
<title>call&#45;backend_configuration&#45;&gt;decl&#45;default_runtime_attributes</title>
<path fill="none" stroke="black" d="M302,-201.7C302,-193.98 302,-184.71 302,-176.11"/>
<polygon fill="black" stroke="black" points="305.5,-176.1 302,-166.1 298.5,-176.1 305.5,-176.1"/>
</g>
<!-- call&#45;de_novo_assembly_sample -->
<g id="node3" class="node">
<title>call&#45;de_novo_assembly_sample</title>
<polygon fill="none" stroke="black" points="260,-54 66,-54 66,-30 260,-30 272,-42 260,-54"/>
<text text-anchor="middle" x="169" y="-38.3" font-family="Times,serif" font-size="14.00">de_novo_assembly_sample</text>
</g>
<!-- call&#45;backend_configuration&#45;&gt;call&#45;de_novo_assembly_sample -->
<g id="edge3" class="edge">
<title>call&#45;backend_configuration&#45;&gt;call&#45;de_novo_assembly_sample</title>
<path fill="none" stroke="black" d="M237.63,-201.89C218.97,-193.9 200.33,-182.4 188,-166 167.24,-138.37 165,-97.24 166.25,-70.28"/>
<polygon fill="black" stroke="black" points="169.76,-70.22 166.92,-60.01 162.78,-69.76 169.76,-70.22"/>
</g>
<!-- call&#45;de_novo_assembly_trio -->
<g id="node6" class="node">
<title>call&#45;de_novo_assembly_trio</title>
<polygon fill="none" stroke="black" points="513,-54 345,-54 345,-30 513,-30 525,-42 513,-54"/>
<text text-anchor="middle" x="435" y="-38.3" font-family="Times,serif" font-size="14.00">de_novo_assembly_trio</text>
</g>
<!-- call&#45;backend_configuration&#45;&gt;call&#45;de_novo_assembly_trio -->
<g id="edge5" class="edge">
<title>call&#45;backend_configuration&#45;&gt;call&#45;de_novo_assembly_trio</title>
<path fill="none" stroke="black" d="M365.15,-201.97C383.84,-193.96 402.6,-182.43 415,-166 435.85,-138.38 438.45,-97.25 437.47,-70.28"/>
<polygon fill="black" stroke="black" points="440.95,-69.8 436.9,-60.01 433.96,-70.19 440.95,-69.8"/>
</g>
<!-- decl&#45;default_runtime_attributes&#45;&gt;call&#45;de_novo_assembly_sample -->
<g id="edge2" class="edge">
<title>decl&#45;default_runtime_attributes&#45;&gt;call&#45;de_novo_assembly_sample</title>
<path fill="none" stroke="black" d="M280.04,-129.83C257.9,-112.51 223.57,-85.67 198.94,-66.41"/>
<polygon fill="black" stroke="black" points="201.03,-63.6 190.99,-60.2 196.72,-69.12 201.03,-63.6"/>
</g>
<!-- decl&#45;default_runtime_attributes&#45;&gt;call&#45;de_novo_assembly_trio -->
<g id="edge4" class="edge">
<title>decl&#45;default_runtime_attributes&#45;&gt;call&#45;de_novo_assembly_trio</title>
<path fill="none" stroke="black" d="M324.77,-129.85C328.21,-127.23 331.7,-124.55 335,-122 358.89,-103.52 385.73,-82.29 405.59,-66.49"/>
<polygon fill="black" stroke="black" points="408,-69.05 413.64,-60.08 403.64,-63.57 408,-69.05"/>
</g>
<!-- if&#45;L35C3 -->
<!-- scatter&#45;L34C2&#45;sample -->
<!-- if&#45;L48C3 -->
<!-- if&#45;L47C2 -->
</g>
</svg>
